<?xml version="1.0" encoding="UTF-8"?>
<svg version="1.1" xmlns="http://www.w3.org/2000/svg" width="715" height="595">
<path d="M0 0 C28.05 0 56.1 0 85 0 C85 6.93 85 13.86 85 21 C91.93 21 98.86 21 106 21 C106 27.93 106 34.86 106 42 C112.93 42 119.86 42 127 42 C127 48.93 127 55.86 127 63 C140.53 63 154.06 63 168 63 C168 56.07 168 49.14 168 42 C189.12 42 210.24 42 232 42 C232 48.93 232 55.86 232 63 C245.53 63 259.06 63 273 63 C273 56.07 273 49.14 273 42 C279.93 42 286.86 42 294 42 C294 35.07 294 28.14 294 21 C300.93 21 307.86 21 315 21 C315 14.07 315 7.14 315 0 C343.05 0 371.1 0 400 0 C400 6.93 400 13.86 400 21 C413.86 21 427.72 21 442 21 C442 27.93 442 34.86 442 42 C448.93 42 455.86 42 463 42 C463 62.79 463 83.58 463 105 C476.86 105 490.72 105 505 105 C505 111.93 505 118.86 505 126 C511.93 126 518.86 126 526 126 C526 132.93 526 139.86 526 147 C532.93 147 539.86 147 547 147 C547 168.12 547 189.24 547 211 C540.07 211 533.14 211 526 211 C526 217.93 526 224.86 526 232 C518.74 232 511.48 232 504 232 C504 224.74 504 217.48 504 210 C510.93 210 517.86 210 525 210 C525 196.47 525 182.94 525 169 C518.07 169 511.14 169 504 169 C504 162.07 504 155.14 504 148 C490.47 148 476.94 148 463 148 C463 154.93 463 161.86 463 169 C456.07 169 449.14 169 442 169 C442 175.93 442 182.86 442 190 C435.07 190 428.14 190 421 190 C421 196.93 421 203.86 421 211 C413.74 211 406.48 211 399 211 C399 204.07 399 197.14 399 190 C392.07 190 385.14 190 378 190 C378 175.81 378 161.62 378 147 C384.93 147 391.86 147 399 147 C399 140.07 399 133.14 399 126 C405.93 126 412.86 126 420 126 C420 105.54 420 85.08 420 64 C413.07 64 406.14 64 399 64 C399 57.07 399 50.14 399 43 C378.54 43 358.08 43 337 43 C337 49.93 337 56.86 337 64 C330.07 64 323.14 64 316 64 C316 77.86 316 91.72 316 106 C302.14 106 288.28 106 274 106 C274 112.6 274 119.2 274 126 C280.93 126 287.86 126 295 126 C295 160.98 295 195.96 295 232 C288.07 232 281.14 232 274 232 C274 238.93 274 245.86 274 253 C267.07 253 260.14 253 253 253 C253 259.6 253 266.2 253 273 C259.93 273 266.86 273 274 273 C274 287.19 274 301.38 274 316 C267.07 316 260.14 316 253 316 C253 329.86 253 343.72 253 358 C246.07 358 239.14 358 232 358 C232 371.86 232 385.72 232 400 C224.74 400 217.48 400 210 400 C210 386.14 210 372.28 210 358 C203.4 358 196.8 358 190 358 C190 371.86 190 385.72 190 400 C182.74 400 175.48 400 168 400 C168 386.14 168 372.28 168 358 C161.07 358 154.14 358 147 358 C147 344.14 147 330.28 147 316 C140.07 316 133.14 316 126 316 C126 301.81 126 287.62 126 273 C132.93 273 139.86 273 147 273 C147 266.4 147 259.8 147 253 C140.07 253 133.14 253 126 253 C126 246.07 126 239.14 126 232 C119.07 232 112.14 232 105 232 C105 197.02 105 162.04 105 126 C111.93 126 118.86 126 126 126 C126 119.4 126 112.8 126 106 C112.14 106 98.28 106 84 106 C84 92.14 84 78.28 84 64 C77.07 64 70.14 64 63 64 C63 57.07 63 50.14 63 43 C42.54 43 22.08 43 1 43 C1 49.93 1 56.86 1 64 C-5.93 64 -12.86 64 -20 64 C-20 84.46 -20 104.92 -20 126 C-13.07 126 -6.14 126 1 126 C1 132.93 1 139.86 1 147 C7.93 147 14.86 147 22 147 C22 161.19 22 175.38 22 190 C15.07 190 8.14 190 1 190 C1 196.93 1 203.86 1 211 C-6.26 211 -13.52 211 -21 211 C-21 204.07 -21 197.14 -21 190 C-27.93 190 -34.86 190 -42 190 C-42 183.07 -42 176.14 -42 169 C-48.93 169 -55.86 169 -63 169 C-63 162.07 -63 155.14 -63 148 C-76.53 148 -90.06 148 -104 148 C-104 154.93 -104 161.86 -104 169 C-110.93 169 -117.86 169 -125 169 C-125 182.53 -125 196.06 -125 210 C-118.07 210 -111.14 210 -104 210 C-104 217.26 -104 224.52 -104 232 C-111.26 232 -118.52 232 -126 232 C-126 225.07 -126 218.14 -126 211 C-132.93 211 -139.86 211 -147 211 C-147 189.88 -147 168.76 -147 147 C-140.07 147 -133.14 147 -126 147 C-126 140.07 -126 133.14 -126 126 C-119.07 126 -112.14 126 -105 126 C-105 119.07 -105 112.14 -105 105 C-91.14 105 -77.28 105 -63 105 C-63 84.21 -63 63.42 -63 42 C-56.07 42 -49.14 42 -42 42 C-42 35.07 -42 28.14 -42 21 C-28.14 21 -14.28 21 0 21 C0 14.07 0 7.14 0 0 Z " fill="#CADAFB" transform="translate(168,90)"/>
<path d="M0 0 C28.05 0 56.1 0 85 0 C85 6.93 85 13.86 85 21 C98.86 21 112.72 21 127 21 C127 27.93 127 34.86 127 42 C133.93 42 140.86 42 148 42 C148 62.79 148 83.58 148 105 C161.86 105 175.72 105 190 105 C190 111.93 190 118.86 190 126 C196.93 126 203.86 126 211 126 C211 132.93 211 139.86 211 147 C217.93 147 224.86 147 232 147 C232 168.12 232 189.24 232 211 C225.07 211 218.14 211 211 211 C211 217.93 211 224.86 211 232 C203.74 232 196.48 232 189 232 C189 224.74 189 217.48 189 210 C195.93 210 202.86 210 210 210 C210 196.47 210 182.94 210 169 C203.07 169 196.14 169 189 169 C189 162.07 189 155.14 189 148 C175.47 148 161.94 148 148 148 C148 154.93 148 161.86 148 169 C141.07 169 134.14 169 127 169 C127 175.93 127 182.86 127 190 C120.07 190 113.14 190 106 190 C106 196.93 106 203.86 106 211 C98.74 211 91.48 211 84 211 C84 204.07 84 197.14 84 190 C77.07 190 70.14 190 63 190 C63 175.81 63 161.62 63 147 C69.93 147 76.86 147 84 147 C84 140.07 84 133.14 84 126 C90.93 126 97.86 126 105 126 C105 105.54 105 85.08 105 64 C98.07 64 91.14 64 84 64 C84 57.07 84 50.14 84 43 C63.54 43 43.08 43 22 43 C22 49.93 22 56.86 22 64 C15.07 64 8.14 64 1 64 C1 77.86 1 91.72 1 106 C-5.909375 106.020625 -12.81875 106.04125 -19.9375 106.0625 C-23.21288696 106.07615601 -23.21288696 106.07615601 -26.55444336 106.09008789 C-28.2745762 106.09300698 -29.99470972 106.09555555 -31.71484375 106.09765625 C-33.067453 106.1053302 -33.067453 106.1053302 -34.4473877 106.11315918 C-36.63191745 106.11346882 -38.8163633 106.0624587 -41 106 C-42 105 -42 105 -42.11352539 102.95874023 C-42.10828857 102.08419189 -42.10305176 101.20964355 -42.09765625 100.30859375 C-42.09443359 99.36435547 -42.09121094 98.42011719 -42.08789062 97.44726562 C-42.07951172 96.45404297 -42.07113281 95.46082031 -42.0625 94.4375 C-42.05798828 93.44041016 -42.05347656 92.44332031 -42.04882812 91.41601562 C-42.03700023 88.94398513 -42.01906415 86.47198528 -42 84 C-48.6 84 -55.2 84 -62 84 C-62 77.07 -62 70.14 -62 63 C-55.4 63 -48.8 63 -42 63 C-42 56.07 -42 49.14 -42 42 C-35.07 42 -28.14 42 -21 42 C-21 35.07 -21 28.14 -21 21 C-14.07 21 -7.14 21 0 21 C0 14.07 0 7.14 0 0 Z " fill="#A1ACB2" transform="translate(483,90)"/>
<path d="M0 0 C28.05 0 56.1 0 85 0 C85 6.93 85 13.86 85 21 C91.93 21 98.86 21 106 21 C106 27.93 106 34.86 106 42 C112.93 42 119.86 42 127 42 C127 48.93 127 55.86 127 63 C133.6 63 140.2 63 147 63 C147 69.93 147 76.86 147 84 C140.07 84 133.14 84 126 84 C126 91.26 126 98.52 126 106 C112.14 106 98.28 106 84 106 C84 92.14 84 78.28 84 64 C77.07 64 70.14 64 63 64 C63 57.07 63 50.14 63 43 C42.54 43 22.08 43 1 43 C1 49.93 1 56.86 1 64 C-5.93 64 -12.86 64 -20 64 C-20 84.46 -20 104.92 -20 126 C-13.07 126 -6.14 126 1 126 C1 132.93 1 139.86 1 147 C7.93 147 14.86 147 22 147 C22 161.19 22 175.38 22 190 C15.07 190 8.14 190 1 190 C1 196.93 1 203.86 1 211 C-6.26 211 -13.52 211 -21 211 C-21 204.07 -21 197.14 -21 190 C-27.93 190 -34.86 190 -42 190 C-42 183.07 -42 176.14 -42 169 C-48.93 169 -55.86 169 -63 169 C-63 162.07 -63 155.14 -63 148 C-76.53 148 -90.06 148 -104 148 C-104 154.93 -104 161.86 -104 169 C-110.93 169 -117.86 169 -125 169 C-125 182.53 -125 196.06 -125 210 C-118.07 210 -111.14 210 -104 210 C-104 217.26 -104 224.52 -104 232 C-111.26 232 -118.52 232 -126 232 C-126 225.07 -126 218.14 -126 211 C-132.93 211 -139.86 211 -147 211 C-147 189.88 -147 168.76 -147 147 C-140.07 147 -133.14 147 -126 147 C-126 140.07 -126 133.14 -126 126 C-119.07 126 -112.14 126 -105 126 C-105 119.07 -105 112.14 -105 105 C-91.14 105 -77.28 105 -63 105 C-63 84.21 -63 63.42 -63 42 C-56.07 42 -49.14 42 -42 42 C-42 35.07 -42 28.14 -42 21 C-28.14 21 -14.28 21 0 21 C0 14.07 0 7.14 0 0 Z " fill="#BAC3D4" transform="translate(168,90)"/>
<path d="M0 0 C14.19 0 28.38 0 43 0 C43 21.12 43 42.24 43 64 C36.07 64 29.14 64 22 64 C22 70.93 22 77.86 22 85 C15.07 85 8.14 85 1 85 C1 91.6 1 98.2 1 105 C7.93 105 14.86 105 22 105 C22 119.19 22 133.38 22 148 C15.07 148 8.14 148 1 148 C1 161.86 1 175.72 1 190 C-5.93 190 -12.86 190 -20 190 C-20 203.86 -20 217.72 -20 232 C-27.26 232 -34.52 232 -42 232 C-42 218.14 -42 204.28 -42 190 C-48.6 190 -55.2 190 -62 190 C-62 203.86 -62 217.72 -62 232 C-69.26 232 -76.52 232 -84 232 C-84 218.14 -84 204.28 -84 190 C-77.07 190 -70.14 190 -63 190 C-63 183.07 -63 176.14 -63 169 C-69.93 169 -76.86 169 -84 169 C-84 155.14 -84 141.28 -84 127 C-76.74 127 -69.48 127 -62 127 C-62 133.6 -62 140.2 -62 147 C-55.4 147 -48.8 147 -42 147 C-42.0103125 144.15890625 -42.020625 141.3178125 -42.03125 138.390625 C-42.0461521 127.17167356 -41.79171716 115.96446889 -41.5 104.75 C-41.45159539 102.81771402 -41.40341738 100.88542235 -41.35546875 98.953125 C-41.239987 94.30199804 -41.11991588 89.651023 -41 85 C-34.07 85 -27.14 85 -20 85 C-20.24556641 80.76929688 -20.24556641 80.76929688 -20.49609375 76.453125 C-21.10850044 64.88300856 -21.11343718 53.33292314 -21.0625 41.75 C-21.05746574 39.72135529 -21.0529063 37.69270935 -21.04882812 35.6640625 C-21.03886059 30.7759845 -21.01926128 25.88808474 -21 21 C-14.07 21 -7.14 21 0 21 C0 14.07 0 7.14 0 0 Z " fill="#CADAFA" transform="translate(420,258)"/>
<path d="M0 0 C28.05 0 56.1 0 85 0 C85 6.93 85 13.86 85 21 C91.93 21 98.86 21 106 21 C106 27.93 106 34.86 106 42 C112.93 42 119.86 42 127 42 C127 48.93 127 55.86 127 63 C133.6 63 140.2 63 147 63 C147 69.93 147 76.86 147 84 C140.07 84 133.14 84 126 84 C126 91.26 126 98.52 126 106 C112.14 106 98.28 106 84 106 C84 92.14 84 78.28 84 64 C77.07 64 70.14 64 63 64 C63 57.07 63 50.14 63 43 C42.54 43 22.08 43 1 43 C1 49.93 1 56.86 1 64 C-5.93 64 -12.86 64 -20 64 C-20 84.46 -20 104.92 -20 126 C-13.07 126 -6.14 126 1 126 C1 132.93 1 139.86 1 147 C7.93 147 14.86 147 22 147 C22 161.19 22 175.38 22 190 C21.67 190 21.34 190 21 190 C21 183.07 21 176.14 21 169 C14.4629715 169.03958259 14.4629715 169.03958259 7.92602539 169.09008789 C7.11641357 169.09258545 6.30680176 169.09508301 5.47265625 169.09765625 C4.64000244 169.10289307 3.80734863 169.10812988 2.94946289 169.11352539 C1 169 1 169 0 168 C-0.08685603 166.43827255 -0.10702219 164.87270656 -0.09765625 163.30859375 C-0.09515869 162.45837646 -0.09266113 161.60815918 -0.09008789 160.73217773 C-0.08098389 159.64493408 -0.07187988 158.55769043 -0.0625 157.4375 C-0.041875 153.993125 -0.02125 150.54875 0 147 C-6.93 147 -13.86 147 -21 147 C-21 140.07 -21 133.14 -21 126 C-27.93 126 -34.86 126 -42 126 C-42 105.21 -42 84.42 -42 63 C-35.07 63 -28.14 63 -21 63 C-21 56.07 -21 49.14 -21 42 C-14.07 42 -7.14 42 0 42 C0 28.14 0 14.28 0 0 Z " fill="#BAC3D4" transform="translate(168,90)"/>
<path d="M0 0 C20.79 0 41.58 0 63 0 C63 6.93 63 13.86 63 21 C69.93 21 76.86 21 84 21 C84 27.93 84 34.86 84 42 C90.93 42 97.86 42 105 42 C105 63.12 105 84.24 105 106 C98.07 106 91.14 106 84 106 C84 112.93 84 119.86 84 127 C76.74 127 69.48 127 62 127 C62 119.74 62 112.48 62 105 C68.93 105 75.86 105 83 105 C83 91.47 83 77.94 83 64 C76.07 64 69.14 64 62 64 C62 57.07 62 50.14 62 43 C41.54 43 21.08 43 0 43 C0 49.6 0 56.2 0 63 C-6.93 63 -13.86 63 -21 63 C-21 69.93 -21 76.86 -21 84 C-27.93 84 -34.86 84 -42 84 C-42 70.14 -42 56.28 -42 42 C-35.07 42 -28.14 42 -21 42 C-21 35.07 -21 28.14 -21 21 C-14.07 21 -7.14 21 0 21 C0 14.07 0 7.14 0 0 Z " fill="#CADAFB" transform="translate(610,195)"/>
<path d="M0 0 C27.72 0 55.44 0 84 0 C84 14.19 84 28.38 84 43 C77.07 43 70.14 43 63 43 C63 36.07 63 29.14 63 22 C42.54 22 22.08 22 1 22 C1 28.93 1 35.86 1 43 C-5.93 43 -12.86 43 -20 43 C-20 63.46 -20 83.92 -20 105 C-13.07 105 -6.14 105 1 105 C1 111.93 1 118.86 1 126 C7.93 126 14.86 126 22 126 C22 140.19 22 154.38 22 169 C21.67 169 21.34 169 21 169 C21 162.07 21 155.14 21 148 C14.4629715 148.03958259 14.4629715 148.03958259 7.92602539 148.09008789 C7.11641357 148.09258545 6.30680176 148.09508301 5.47265625 148.09765625 C4.64000244 148.10289307 3.80734863 148.10812988 2.94946289 148.11352539 C1 148 1 148 0 147 C-0.08685603 145.43827255 -0.10702219 143.87270656 -0.09765625 142.30859375 C-0.09515869 141.45837646 -0.09266113 140.60815918 -0.09008789 139.73217773 C-0.08098389 138.64493408 -0.07187988 137.55769043 -0.0625 136.4375 C-0.041875 132.993125 -0.02125 129.54875 0 126 C-6.93 126 -13.86 126 -21 126 C-21 119.07 -21 112.14 -21 105 C-27.93 105 -34.86 105 -42 105 C-42 84.21 -42 63.42 -42 42 C-35.07 42 -28.14 42 -21 42 C-21 35.07 -21 28.14 -21 21 C-14.07 21 -7.14 21 0 21 C0 14.07 0 7.14 0 0 Z " fill="#A1ACB2" transform="translate(168,111)"/>
<path d="M0 0 C7.26 0 14.52 0 22 0 C22 6.93 22 13.86 22 21 C28.93 21 35.86 21 43 21 C43 27.93 43 34.86 43 42 C49.93 42 56.86 42 64 42 C64.02290595 47.9631823 64.04283396 53.92621311 64.05493164 59.8894043 C64.05997278 61.91968298 64.06680557 63.94995802 64.07543945 65.98022461 C64.08751467 68.89177347 64.09323034 71.8032745 64.09765625 74.71484375 C64.10281754 75.6283812 64.10797882 76.54191864 64.11329651 77.48313904 C64.11349168 79.65575427 64.06211805 81.82827296 64 84 C63 85 63 85 61.05053711 85.11352539 C60.2178833 85.10828857 59.38522949 85.10305176 58.52734375 85.09765625 C57.71773193 85.09515869 56.90812012 85.09266113 56.07397461 85.09008789 C55.03893799 85.08098389 54.00390137 85.07187988 52.9375 85.0625 C49.658125 85.041875 46.37875 85.02125 43 85 C43 91.93 43 98.86 43 106 C35.74 106 28.48 106 21 106 C21 99.07 21 92.14 21 85 C14.07 85 7.14 85 0 85 C0 56.95 0 28.9 0 0 Z " fill="#BAC3D4" transform="translate(273,237)"/>
<path d="M0 0 C7.26 0 14.52 0 22 0 C22 6.6 22 13.2 22 20 C28.6 20 35.2 20 42 20 C42 13.4 42 6.8 42 0 C48.93 0 55.86 0 63 0 C63 13.53 63 27.06 63 41 C56.4 41 49.8 41 43 41 C43 48.26 43 55.52 43 63 C49.93 63 56.86 63 64 63 C64 76.86 64 90.72 64 105 C56.74 105 49.48 105 42 105 C42 91.14 42 77.28 42 63 C35.4 63 28.8 63 22 63 C22 76.86 22 90.72 22 105 C14.74 105 7.48 105 0 105 C0 91.14 0 77.28 0 63 C6.93 63 13.86 63 21 63 C21 56.07 21 49.14 21 42 C14.07 42 7.14 42 0 42 C0 28.14 0 14.28 0 0 Z " fill="#B9C2D3" transform="translate(336,385)"/>
<path d="M0 0 C14.19 0 28.38 0 43 0 C43 6.93 43 13.86 43 21 C49.93 21 56.86 21 64 21 C64 27.93 64 34.86 64 42 C70.6 42 77.2 42 84 42 C84.76403087 56.03906726 85.09564288 69.94049729 85 84 C91.93 84 98.86 84 106 84 C106 97.86 106 111.72 106 126 C99.07 126 92.14 126 85 126 C85 119.07 85 112.14 85 105 C78.07 105 71.14 105 64 105 C64 91.14 64 77.28 64 63 C57.07 63 50.14 63 43 63 C43 56.07 43 49.14 43 42 C36.07 42 29.14 42 22 42 C22 35.07 22 28.14 22 21 C14.74 21 7.48 21 0 21 C0 14.07 0 7.14 0 0 Z " fill="#DCE7FE" transform="translate(357,132)"/>
<path d="M0 0 C14.19 0 28.38 0 43 0 C43 21.12 43 42.24 43 64 C36.07 64 29.14 64 22 64 C22 70.93 22 77.86 22 85 C14.74 85 7.48 85 0 85 C0 78.07 0 71.14 0 64 C-6.6 64 -13.2 64 -20 64 C-20 49.81 -20 35.62 -20 21 C-13.4 21 -6.8 21 0 21 C0 14.07 0 7.14 0 0 Z " fill="#BAC3D4" transform="translate(420,258)"/>
<path d="M0 0 C28.05 0 56.1 0 85 0 C85 6.93 85 13.86 85 21 C64.21 21 43.42 21 22 21 C22 27.93 22 34.86 22 42 C15.07 42 8.14 42 1 42 C1 48.93 1 55.86 1 63 C-5.93 63 -12.86 63 -20 63 C-20 69.93 -20 76.86 -20 84 C-26.93 84 -33.86 84 -41 84 C-41.76403087 69.96093274 -42.09564288 56.05950271 -42 42 C-35.07 42 -28.14 42 -21 42 C-21 35.07 -21 28.14 -21 21 C-14.07 21 -7.14 21 0 21 C0 14.07 0 7.14 0 0 Z " fill="#B2C1CA" transform="translate(483,90)"/>
<path d="M0 0 C13.86 0 27.72 0 42 0 C42 6.93 42 13.86 42 21 C48.93 21 55.86 21 63 21 C63 42.12 63 63.24 63 85 C56.07 85 49.14 85 42 85 C42 91.93 42 98.86 42 106 C34.74 106 27.48 106 20 106 C20 98.74 20 91.48 20 84 C26.93 84 33.86 84 41 84 C41 70.47 41 56.94 41 43 C34.07 43 27.14 43 20 43 C20 36.07 20 29.14 20 22 C13.4 22 6.8 22 0 22 C0 14.74 0 7.48 0 0 Z " fill="#BAC3D4" transform="translate(652,216)"/>
<path d="M0 0 C13.86 0 27.72 0 42 0 C42 6.93 42 13.86 42 21 C48.93 21 55.86 21 63 21 C63 41.79 63 62.58 63 84 C56.07 84 49.14 84 42 84 C42 70.14 42 56.28 42 42 C35.07 42 28.14 42 21 42 C21 35.07 21 28.14 21 21 C14.07 21 7.14 21 0 21 C0 14.07 0 7.14 0 0 Z " fill="#C3D0D8" transform="translate(568,111)"/>
<path d="M0 0 C13.86 0 27.72 0 42 0 C42 6.93 42 13.86 42 21 C35.07 21 28.14 21 21 21 C21 27.93 21 34.86 21 42 C14.07 42 7.14 42 0 42 C0 55.86 0 69.72 0 84 C-6.93 84 -13.86 84 -21 84 C-21 63.21 -21 42.42 -21 21 C-14.07 21 -7.14 21 0 21 C0 14.07 0 7.14 0 0 Z " fill="#B2C1CA" transform="translate(126,111)"/>
<path d="M0 0 C28.05 0 56.1 0 85 0 C85 13.86 85 27.72 85 42 C91.6 42 98.2 42 105 42 C105 48.93 105 55.86 105 63 C98.07 63 91.14 63 84 63 C84 49.14 84 35.28 84 21 C56.28 21 28.56 21 0 21 C0 14.07 0 7.14 0 0 Z " fill="#B2C0C9" transform="translate(168,90)"/>
<path d="M0 0 C7.26 0 14.52 0 22 0 C22 6.6 22 13.2 22 20 C28.6 20 35.2 20 42 20 C42 13.4 42 6.8 42 0 C48.93 0 55.86 0 63 0 C63 13.53 63 27.06 63 41 C40.01026119 42.14948694 40.01026119 42.14948694 31.640625 42.09765625 C30.4028833 42.09614563 30.4028833 42.09614563 29.14013672 42.09460449 C26.17674283 42.089533 23.21336937 42.07557845 20.25 42.0625 C13.5675 42.041875 6.885 42.02125 0 42 C0 28.14 0 14.28 0 0 Z " fill="#99A9B3" transform="translate(336,385)"/>
<path d="M0 0 C7.26 0 14.52 0 22 0 C22 6.93 22 13.86 22 21 C28.93 21 35.86 21 43 21 C43 34.86 43 48.72 43 63 C35.74 63 28.48 63 21 63 C21 56.4 21 49.8 21 43 C14.07 43 7.14 43 0 43 C0 28.81 0 14.62 0 0 Z " fill="#9CADB8" transform="translate(294,258)"/>
<path d="M0 0 C6.93 0 13.86 0 21 0 C21 6.93 21 13.86 21 21 C14.07 21 7.14 21 0 21 C0 27.93 0 34.86 0 42 C-6.93 42 -13.86 42 -21 42 C-21 48.93 -21 55.86 -21 63 C-28.26 63 -35.52 63 -43 63 C-43 56.07 -43 49.14 -43 42 C-49.6 42 -56.2 42 -63 42 C-63 35.07 -63 28.14 -63 21 C-56.07 21 -49.14 21 -42 21 C-42 27.6 -42 34.2 -42 41 C-35.07 41 -28.14 41 -21 41 C-21 34.07 -21 27.14 -21 20 C-14.07 20 -7.14 20 0 20 C0 13.4 0 6.8 0 0 Z " fill="#BAC3D4" transform="translate(610,238)"/>
<path d="M0 0 C6.93 0 13.86 0 21 0 C21 6.93 21 13.86 21 21 C27.93 21 34.86 21 42 21 C42 14.07 42 7.14 42 0 C48.93 0 55.86 0 63 0 C63 14.19 63 28.38 63 43 C56.090625 43.020625 49.18125 43.04125 42.0625 43.0625 C38.78711304 43.07615601 38.78711304 43.07615601 35.44555664 43.09008789 C33.7254238 43.09300698 32.00529028 43.09555555 30.28515625 43.09765625 C28.932547 43.1053302 28.932547 43.1053302 27.5526123 43.11315918 C25.36808255 43.11346882 23.1836367 43.0624587 21 43 C20 42 20 42 19.88647461 39.95874023 C19.89171143 39.08419189 19.89694824 38.20964355 19.90234375 37.30859375 C19.90556641 36.36435547 19.90878906 35.42011719 19.91210938 34.44726562 C19.92048828 33.45404297 19.92886719 32.46082031 19.9375 31.4375 C19.94201172 30.44041016 19.94652344 29.44332031 19.95117188 28.41601562 C19.96299977 25.94398513 19.98093585 23.47198528 20 21 C13.4 21 6.8 21 0 21 C0 14.07 0 7.14 0 0 Z " fill="#B9C2D2" transform="translate(421,153)"/>
<path d="M0 0 C7.26 0 14.52 0 22 0 C22 14.19 22 28.38 22 43 C15.07 43 8.14 43 1 43 C1 49.6 1 56.2 1 63 C-5.93 63 -12.86 63 -20 63 C-20 49.14 -20 35.28 -20 21 C-13.4 21 -6.8 21 0 21 C0 14.07 0 7.14 0 0 Z " fill="#9BADB7" transform="translate(420,258)"/>
<path d="M0 0 C6.93 0 13.86 0 21 0 C21 6.6 21 13.2 21 20 C27.93 20 34.86 20 42 20 C42 33.86 42 47.72 42 62 C35.07 62 28.14 62 21 62 C21 55.07 21 48.14 21 41 C14.07 41 7.14 41 0 41 C0 27.47 0 13.94 0 0 Z " fill="#CBDAFA" transform="translate(126,217)"/>
<path d="M0 0 C6.93 0.33 13.86 0.66 21 1 C21 7.93 21 14.86 21 22 C14.4 22 7.8 22 1 22 C1 28.93 1 35.86 1 43 C-6.26 43 -13.52 43 -21 43 C-21 36.07 -21 29.14 -21 22 C-27.93 22 -34.86 22 -42 22 C-42 15.07 -42 8.14 -42 1 C-35.07 1 -28.14 1 -21 1 C-21 7.6 -21 14.2 -21 21 C-14.07 21 -7.14 21 0 21 C0 14.07 0 7.14 0 0 Z " fill="#BAC3D4" transform="translate(168,258)"/>
<path d="M0 0 C6.93 0 13.86 0 21 0 C21 6.93 21 13.86 21 21 C27.93 21 34.86 21 42 21 C42 27.93 42 34.86 42 42 C35.07 42 28.14 42 21 42 C21 48.93 21 55.86 21 63 C13.74 63 6.48 63 -1 63 C-1 56.07 -1 49.14 -1 42 C5.93 42 12.86 42 20 42 C20 35.07 20 28.14 20 21 C13.4 21 6.8 21 0 21 C0 14.07 0 7.14 0 0 Z " fill="#C3D0DA" transform="translate(253,111)"/>
<path d="M0 0 C6.93 0 13.86 0 21 0 C21.14453854 5.91833702 21.28760848 11.83667675 21.42724609 17.75512695 C21.47493969 19.75937814 21.52341438 21.76361092 21.57275391 23.76782227 C21.89414741 36.84984978 22.05079564 49.91377336 22 63 C14.74 63 7.48 63 0 63 C0 42.21 0 21.42 0 0 Z " fill="#DCE7FE" transform="translate(378,279)"/>
<path d="M0 0 C20.79 0 41.58 0 63 0 C63 6.93 63 13.86 63 21 C42.21 21 21.42 21 0 21 C0 14.07 0 7.14 0 0 Z " fill="#CBDBFB" transform="translate(63,195)"/>
<path d="M0 0 C20.79 0 41.58 0 63 0 C63 6.6 63 13.2 63 20 C42.21 20 21.42 20 0 20 C0 13.4 0 6.8 0 0 Z " fill="#C3D0D8" transform="translate(505,91)"/>
<path d="M0 0 C0.33 0 0.66 0 1 0 C1 6.93 1 13.86 1 21 C7.93 21 14.86 21 22 21 C22 34.86 22 48.72 22 63 C14.74 63 7.48 63 0 63 C0 42.21 0 21.42 0 0 Z " fill="#B9C2D3" transform="translate(378,427)"/>
<path d="M0 0 C6.93 0 13.86 0 21 0 C21 27.72 21 55.44 21 84 C14.07 84 7.14 84 0 84 C0 83.67 0 83.34 0 83 C6.6 83 13.2 83 20 83 C20 69.47 20 55.94 20 42 C13.4 42 6.8 42 0 42 C0 28.14 0 14.28 0 0 Z " fill="#B8C2D3" transform="translate(379,343)"/>
<path d="M0 0 C0.83265381 0.00523682 1.66530762 0.01047363 2.52319336 0.01586914 C3.33280518 0.0183667 4.14241699 0.02086426 4.9765625 0.0234375 C6.01159912 0.0325415 7.04663574 0.04164551 8.11303711 0.05102539 C11.39241211 0.07165039 14.67178711 0.09227539 18.05053711 0.11352539 C18.05053711 7.04352539 18.05053711 13.97352539 18.05053711 21.11352539 C24.98053711 21.11352539 31.91053711 21.11352539 39.05053711 21.11352539 C39.05053711 28.04352539 39.05053711 34.97352539 39.05053711 42.11352539 C33.88397461 42.14446289 33.88397461 42.14446289 28.61303711 42.17602539 C27.52579346 42.18512939 26.4385498 42.1942334 25.31835938 42.20361328 C24.46814209 42.20611084 23.6179248 42.2086084 22.74194336 42.21118164 C21.86739502 42.21641846 20.99284668 42.22165527 20.09179688 42.22705078 C18.05053711 42.11352539 18.05053711 42.11352539 17.05053711 41.11352539 C16.964021 39.69782416 16.94348807 38.27793039 16.95288086 36.85961914 C16.95610352 36.00561523 16.95932617 35.15161133 16.96264648 34.27172852 C16.97102539 33.37389648 16.9794043 32.47606445 16.98803711 31.55102539 C16.99254883 30.64932617 16.99706055 29.74762695 17.00170898 28.81860352 C17.01353486 26.58351225 17.03001491 24.34855102 17.05053711 22.11352539 C16.19504272 22.12138062 16.19504272 22.12138062 15.32226562 22.12939453 C12.75253388 22.1501076 10.18281964 22.16316729 7.61303711 22.17602539 C6.71520508 22.1844043 5.81737305 22.1927832 4.89233398 22.20141602 C3.61132812 22.20625 3.61132812 22.20625 2.30444336 22.21118164 C1.51368408 22.21641846 0.7229248 22.22165527 -0.09179688 22.22705078 C-1.94946289 22.11352539 -1.94946289 22.11352539 -2.94946289 21.11352539 C-3.04827086 19.63699875 -3.08025535 18.15585303 -3.08227539 16.67602539 C-3.08356445 15.78141602 -3.08485352 14.88680664 -3.08618164 13.96508789 C-3.08038086 12.55356445 -3.08038086 12.55356445 -3.07446289 11.11352539 C-3.07833008 10.17250977 -3.08219727 9.23149414 -3.08618164 8.26196289 C-3.08489258 7.36735352 -3.08360352 6.47274414 -3.08227539 5.55102539 C-3.0805835 4.3115918 -3.0805835 4.3115918 -3.07885742 3.04711914 C-2.90250169 0.41176559 -2.63789571 0.15361572 0 0 Z " fill="#DBE7FE" transform="translate(360.949462890625,215.886474609375)"/>
<path d="M0 0 C7.26 0 14.52 0 22 0 C22 13.86 22 27.72 22 42 C15.07 42 8.14 42 1 42 C0.23596913 27.96093274 -0.09564288 14.05950271 0 0 Z " fill="#CADAFB" transform="translate(441,132)"/>
<path d="M0 0 C13.86 0 27.72 0 42 0 C42 6.93 42 13.86 42 21 C28.14 21 14.28 21 0 21 C0 14.07 0 7.14 0 0 Z " fill="#BAC3D4" transform="translate(379,427)"/>
<path d="M0 0 C13.86 0 27.72 0 42 0 C42 6.93 42 13.86 42 21 C28.14 21 14.28 21 0 21 C0 14.07 0 7.14 0 0 Z " fill="#DCE7FE" transform="translate(631,195)"/>
<path d="M0 0 C6.93 0 13.86 0 21 0 C21 13.86 21 27.72 21 42 C14.07 42 7.14 42 0 42 C0 28.14 0 14.28 0 0 Z " fill="#B2C1CA" transform="translate(105,153)"/>
<path d="M0 0 C13.86 0 27.72 0 42 0 C42 6.6 42 13.2 42 20 C28.14 20 14.28 20 0 20 C0 13.4 0 6.8 0 0 Z " fill="#C3D0D8" transform="translate(189,91)"/>
<path d="M0 0 C13.53 0 27.06 0 41 0 C41 6.6 41 13.2 41 20 C27.47 20 13.94 20 0 20 C0 13.4 0 6.8 0 0 Z " fill="#A1ACB2" transform="translate(442,175)"/>
<path d="M0 0 C0.33 0 0.66 0 1 0 C1 6.93 1 13.86 1 21 C7.6 21 14.2 21 21 21 C21 27.93 21 34.86 21 42 C14.07 42 7.14 42 0 42 C0 28.14 0 14.28 0 0 Z " fill="#9CAEB9" transform="translate(336,385)"/>
<path d="M0 0 C0.33 0 0.66 0 1 0 C1 13.86 1 27.72 1 42 C-6.26 42 -13.52 42 -21 42 C-21 35.4 -21 28.8 -21 22 C-14.07 22 -7.14 22 0 22 C0 14.74 0 7.48 0 0 Z " fill="#9DAEBA" transform="translate(336,279)"/>
<path d="M0 0 C0 7.26 0 14.52 0 22 C-6.93 22 -13.86 22 -21 22 C-21 15.07 -21 8.14 -21 1 C-17.720625 0.835 -14.44125 0.67 -11.0625 0.5 C-10.02746338 0.44779297 -8.99242676 0.39558594 -7.92602539 0.34179688 C-6.71160767 0.28088867 -6.71160767 0.28088867 -5.47265625 0.21875 C-4.64000244 0.17685547 -3.80734863 0.13496094 -2.94946289 0.09179688 C-1.96692123 0.04553067 -0.98363035 0 0 0 Z " fill="#9CADB8" transform="translate(442,279)"/>
<path d="M0 0 C6.93 0 13.86 0 21 0 C21 6.93 21 13.86 21 21 C14.07 21 7.14 21 0 21 C0 14.07 0 7.14 0 0 Z " fill="#CADAFA" transform="translate(379,427)"/>
<path d="M0 0 C6.93 0 13.86 0 21 0 C21 6.93 21 13.86 21 21 C14.07 21 7.14 21 0 21 C0 14.07 0 7.14 0 0 Z " fill="#BAC3D4" transform="translate(315,427)"/>
<path d="M0 0 C6.93 0 13.86 0 21 0 C21 6.93 21 13.86 21 21 C14.07 21 7.14 21 0 21 C0 14.07 0 7.14 0 0 Z " fill="#BAC3D4" transform="translate(421,385)"/>
<path d="M0 0 C6.93 0 13.86 0 21 0 C21 6.93 21 13.86 21 21 C14.07 21 7.14 21 0 21 C0 14.07 0 7.14 0 0 Z " fill="#BAC3D4" transform="translate(294,385)"/>
<path d="M0 0 C6.93 0 13.86 0 21 0 C21 6.93 21 13.86 21 21 C14.07 21 7.14 21 0 21 C0 14.07 0 7.14 0 0 Z " fill="#CBDBFB" transform="translate(147,258)"/>
<path d="M0 0 C6.93 0 13.86 0 21 0 C21 6.93 21 13.86 21 21 C14.07 21 7.14 21 0 21 C0 14.07 0 7.14 0 0 Z " fill="#DCE7FE" transform="translate(336,195)"/>
<path d="M0 0 C6.93 0 13.86 0 21 0 C21 6.93 21 13.86 21 21 C14.07 21 7.14 21 0 21 C0 14.07 0 7.14 0 0 Z " fill="#B2C1CA" transform="translate(610,174)"/>
<path d="M0 0 C6.93 0 13.86 0 21 0 C21 6.93 21 13.86 21 21 C14.07 21 7.14 21 0 21 C0 14.07 0 7.14 0 0 Z " fill="#CADAFA" transform="translate(252,153)"/>
<path d="M0 0 C6.93 0 13.86 0 21 0 C21 6.93 21 13.86 21 21 C14.07 21 7.14 21 0 21 C0 14.07 0 7.14 0 0 Z " fill="#B2C1CA" transform="translate(589,132)"/>
<path d="M0 0 C6.93 0 13.86 0 21 0 C21 6.93 21 13.86 21 21 C14.07 21 7.14 21 0 21 C0 14.07 0 7.14 0 0 Z " fill="#CADAFB" transform="translate(274,132)"/>
<path d="M0 0 C6.93 0 13.86 0 21 0 C21 6.93 21 13.86 21 21 C14.07 21 7.14 21 0 21 C0 14.07 0 7.14 0 0 Z " fill="#C3D0D8" transform="translate(105,132)"/>
<path d="M0 0 C6.93 0 13.86 0 21 0 C21 6.93 21 13.86 21 21 C14.07 21 7.14 21 0 21 C0 14.07 0 7.14 0 0 Z " fill="#B2C1CA" transform="translate(568,111)"/>
<path d="M0 0 C6.93 0 13.86 0 21 0 C21 6.93 21 13.86 21 21 C14.07 21 7.14 21 0 21 C0 14.07 0 7.14 0 0 Z " fill="#C3D0D8" transform="translate(126,111)"/>
<path d="M0 0 C6.6 0 13.2 0 20 0 C20 6.93 20 13.86 20 21 C13.4 21 6.8 21 0 21 C0 14.07 0 7.14 0 0 Z " fill="#9BADB7" transform="translate(358,427)"/>
<path d="M0 0 C6.6 0 13.2 0 20 0 C20 6.93 20 13.86 20 21 C13.4 21 6.8 21 0 21 C0 14.07 0 7.14 0 0 Z " fill="#7B868C" transform="translate(379,385)"/>
<path d="M0 0 C6.6 0 13.2 0 20 0 C20 6.93 20 13.86 20 21 C13.4 21 6.8 21 0 21 C0 14.07 0 7.14 0 0 Z " fill="#7B868C" transform="translate(337,385)"/>
<path d="M0 0 C6.6 0 13.2 0 20 0 C20 6.93 20 13.86 20 21 C13.4 21 6.8 21 0 21 C0 14.07 0 7.14 0 0 Z " fill="#B8C1D2" transform="translate(337,364)"/>
<path d="M0 0 C6.93 0 13.86 0 21 0 C21 6.6 21 13.2 21 20 C14.07 20 7.14 20 0 20 C0 13.4 0 6.8 0 0 Z " fill="#DCE7FE" transform="translate(147,238)"/>
<path d="M0 0 C6.93 0 13.86 0 21 0 C21 6.6 21 13.2 21 20 C14.07 20 7.14 20 0 20 C0 13.4 0 6.8 0 0 Z " fill="#DCE7FE" transform="translate(126,217)"/>
<path d="M0 0 C6.93 0 13.86 0 21 0 C21 6.6 21 13.2 21 20 C14.07 20 7.14 20 0 20 C0 13.4 0 6.8 0 0 Z " fill="#DCE7FF" transform="translate(105,196)"/>
<path d="M0 0 C6.6 0 13.2 0 20 0 C20 6.6 20 13.2 20 20 C13.4 20 6.8 20 0 20 C0 13.4 0 6.8 0 0 Z " fill="#7B868C" transform="translate(358,406)"/>
<path d="M0 0 C6.6 0 13.2 0 20 0 C20 6.6 20 13.2 20 20 C13.4 20 6.8 20 0 20 C0 13.4 0 6.8 0 0 Z " fill="#BAC3D4" transform="translate(358,385)"/>
<path d="M0 0 C6.6 0 13.2 0 20 0 C20 6.6 20 13.2 20 20 C13.4 20 6.8 20 0 20 C0 13.4 0 6.8 0 0 Z " fill="#7B868C" transform="translate(400,280)"/>
<path d="M0 0 C6.6 0 13.2 0 20 0 C20 6.6 20 13.2 20 20 C13.4 20 6.8 20 0 20 C0 13.4 0 6.8 0 0 Z " fill="#7B868C" transform="translate(316,280)"/>
<path d="M0 0 C6.6 0 13.2 0 20 0 C20 6.6 20 13.2 20 20 C13.4 20 6.8 20 0 20 C0 13.4 0 6.8 0 0 Z " fill="#7B868C" transform="translate(421,259)"/>
<path d="M0 0 C6.6 0 13.2 0 20 0 C20 6.6 20 13.2 20 20 C13.4 20 6.8 20 0 20 C0 13.4 0 6.8 0 0 Z " fill="#7B868C" transform="translate(295,259)"/>
<path d="M0 0 C7.26 0 14.52 0 22 0 C22.020625 3.444375 22.04125 6.88875 22.0625 10.4375 C22.071604 11.52474365 22.08070801 12.6119873 22.09008789 13.73217773 C22.09258545 14.58239502 22.09508301 15.4326123 22.09765625 16.30859375 C22.10289307 17.18314209 22.10812988 18.05769043 22.11352539 18.95874023 C22 21 22 21 21 22 C19.5112814 22.08669432 18.018555 22.10703494 16.52734375 22.09765625 C15.71773193 22.09515869 14.90812012 22.09266113 14.07397461 22.09008789 C13.03893799 22.08098389 12.00390137 22.07187988 10.9375 22.0625 C7.658125 22.041875 4.37875 22.02125 1 22 C1 28.93 1 35.86 1 43 C-5.93 43 -12.86 43 -20 43 C-20 42.67 -20 42.34 -20 42 C-13.4 42 -6.8 42 0 42 C0 35.4 0 28.8 0 22 C-6.6 22 -13.2 22 -20 22 C-20 21.67 -20 21.34 -20 21 C-13.4 21 -6.8 21 0 21 C0 14.07 0 7.14 0 0 Z M1 1 C1 7.6 1 14.2 1 21 C7.6 21 14.2 21 21 21 C21 14.4 21 7.8 21 1 C14.4 1 7.8 1 1 1 Z " fill="#95A2AF" transform="translate(420,258)"/>
<path d="M0 0 C7.26 0 14.52 0 22 0 C22 6.93 22 13.86 22 21 C28.6 21 35.2 21 42 21 C42 21.33 42 21.66 42 22 C35.4 22 28.8 22 22 22 C22 28.6 22 35.2 22 42 C28.6 42 35.2 42 42 42 C42 42.33 42 42.66 42 43 C35.07 43 28.14 43 21 43 C21 36.07 21 29.14 21 22 C14.4629715 22.03958259 14.4629715 22.03958259 7.92602539 22.09008789 C7.11641357 22.09258545 6.30680176 22.09508301 5.47265625 22.09765625 C4.22367554 22.10551147 4.22367554 22.10551147 2.94946289 22.11352539 C1 22 1 22 0 21 C-0.08685603 19.43827255 -0.10702219 17.87270656 -0.09765625 16.30859375 C-0.09515869 15.45837646 -0.09266113 14.60815918 -0.09008789 13.73217773 C-0.08098389 12.64493408 -0.07187988 11.55769043 -0.0625 10.4375 C-0.041875 6.993125 -0.02125 3.54875 0 0 Z M1 1 C1 7.6 1 14.2 1 21 C7.6 21 14.2 21 21 21 C21 14.4 21 7.8 21 1 C14.4 1 7.8 1 1 1 Z " fill="#95A3AF" transform="translate(294,258)"/>
<path d="M0 0 C0.33 0 0.66 0 1 0 C1 6.6 1 13.2 1 20 C14.86 20 28.72 20 43 20 C43 20.33 43 20.66 43 21 C29.14 21 15.28 21 1 21 C1 27.6 1 34.2 1 41 C0.67 41 0.34 41 0 41 C0 34.4 0 27.8 0 21 C-6.6 21 -13.2 21 -20 21 C-20 20.67 -20 20.34 -20 20 C-13.4 20 -6.8 20 0 20 C0 13.4 0 6.8 0 0 Z " fill="#BEC9DE" transform="translate(567,259)"/>
<path d="M0 0 C0.33 0 0.66 0 1 0 C1 6.27 1 12.54 1 19 C7.6 19 14.2 19 21 19 C21 19.33 21 19.66 21 20 C14.4 20 7.8 20 1 20 C1 26.93 1 33.86 1 41 C0.67 41 0.34 41 0 41 C0 34.07 0 27.14 0 20 C-6.93 20 -13.86 20 -21 20 C-21 19.67 -21 19.34 -21 19 C-14.07 19 -7.14 19 0 19 C0 12.73 0 6.46 0 0 Z " fill="#BEC9DE" transform="translate(168,260)"/>
</svg>
